<svg xmlns="http://www.w3.org/2000/svg" width="630" height="85" style="shape-rendering:geometricPrecision;text-rendering:geometricPrecision;image-rendering:optimizeQuality;fill-rule:evenodd;clip-rule:evenodd">
  <path fill="#7bad42" d="M32.5 84.5h-2c-9-2.5-11.4-8.2-7.5-17L81.5 9c12.7-4 17.9.6 15.5 13.5L36.5 83c-1.6.2-2.9.7-4 1.5Z" style="opacity:.969"/>
  <path fill="#7bad41" d="M146.5 84.5h-3c-3.8-1-6.6-3.3-8.5-7l-1-35L94.5 82l-6 2.5h-2c-8-2.7-10.5-8-7.5-16L139.5 8c6.5-2 11.3-.2 14.5 5.5.7 21.3.7 42.7 0 64a13.5 13.5 0 0 1-7.5 7Z" style="opacity:.967"/>
</svg>